<svg width="6" height="12" viewBox="0 0 6 12" fill="none" xmlns="http://www.w3.org/2000/svg">
<path d="M2.73033 11.4C2.57331 11.4 2.44505 11.3476 2.34556 11.2428C2.24607 11.1383 2.19632 11.0076 2.19632 10.8505V10.0652C1.69384 9.97095 1.26209 9.78779 0.901057 9.5157C0.539774 9.24361 0.254491 8.88773 0.0452087 8.44806C-0.0176012 8.31189 -0.0149632 8.16793 0.0531227 8.01618C0.120957 7.86443 0.233387 7.75715 0.390412 7.69434C0.526584 7.63153 0.665394 7.63153 0.806842 7.69434C0.948038 7.75715 1.06047 7.86179 1.14413 8.00826C1.32226 8.33287 1.55528 8.57883 1.84321 8.74615C2.13087 8.91373 2.46314 8.99752 2.84 8.99752C3.31107 8.99752 3.69848 8.88496 4.00223 8.65985C4.30573 8.43474 4.45748 8.11806 4.45748 7.70979C4.45748 7.29123 4.32143 6.96411 4.04934 6.72845C3.777 6.49304 3.23784 6.24444 2.43186 5.98264C1.63618 5.7314 1.05783 5.40429 0.696799 5.0013C0.335516 4.59831 0.154875 4.09847 0.154875 3.50178C0.154875 2.89453 0.348581 2.39469 0.735992 2.00225C1.1234 1.60957 1.61018 1.38182 2.19632 1.31901V0.549461C2.19632 0.392436 2.24607 0.261666 2.34556 0.15715C2.44505 0.0523834 2.57331 0 2.73033 0C2.88736 0 3.01813 0.0523834 3.12264 0.15715C3.22741 0.261666 3.27979 0.392436 3.27979 0.549461V1.31901C3.66721 1.38182 4.01002 1.5048 4.30824 1.68795C4.60672 1.87111 4.85532 2.10401 5.05405 2.38665C5.14826 2.51227 5.1666 2.65108 5.10907 2.80308C5.05154 2.95483 4.94426 3.06211 4.78723 3.12492C4.66161 3.18773 4.52557 3.19288 4.37909 3.14037C4.23237 3.08811 4.10147 2.99917 3.98641 2.87355C3.83993 2.70598 3.66721 2.58036 3.46822 2.49669C3.26924 2.41303 3.02843 2.3712 2.74578 2.3712C2.28526 2.3712 1.92938 2.4732 1.67814 2.67721C1.4269 2.88147 1.30128 3.15105 1.30128 3.48595C1.30128 3.85226 1.45052 4.14533 1.74899 4.36516C2.04721 4.585 2.60986 4.82054 3.43694 5.07177C4.15926 5.30216 4.70093 5.63191 5.06196 6.06103C5.42325 6.4904 5.60389 7.02428 5.60389 7.66268C5.60389 8.35359 5.39975 8.90054 4.99149 9.30353C4.58323 9.70677 4.01266 9.96592 3.27979 10.081V10.8505C3.27979 11.0076 3.22741 11.1383 3.12264 11.2428C3.01813 11.3476 2.88736 11.4 2.73033 11.4Z" fill="#767676"/>
</svg>
