<svg width="18" height="22" viewBox="0 0 18 22" fill="none" xmlns="http://www.w3.org/2000/svg">
<path d="M15.2748 21.1748H2.72521C2.20841 21.1748 1.76241 20.9874 1.38721 20.6126C1.01241 20.2374 0.825012 19.7916 0.825012 19.2752V2.7248C0.825012 2.2084 1.01241 1.7626 1.38721 1.3874C1.76241 1.0126 2.20841 0.825195 2.72521 0.825195H10.3002C10.5502 0.825195 10.7918 0.875195 11.025 0.975195C11.2582 1.0752 11.4666 1.2168 11.6502 1.4L16.6002 6.35C16.7834 6.5332 16.925 6.7416 17.025 6.9752C17.125 7.2084 17.175 7.45 17.175 7.7V19.2752C17.175 19.7916 16.9876 20.2374 16.6128 20.6126C16.2376 20.9874 15.7916 21.1748 15.2748 21.1748ZM15.2748 19.2752V7.7498L10.2498 2.7248H2.72521V19.2752H15.2748Z" fill="#767676"/>
</svg>
