<svg width="20" height="20" viewBox="0 0 20 20" fill="none" xmlns="http://www.w3.org/2000/svg">
<path d="M10.95 5.77499V1.77499C10.95 1.45833 11.0584 1.19166 11.275 0.974994C11.4917 0.758327 11.7667 0.649994 12.1 0.649994H18.225C18.5417 0.649994 18.8084 0.758327 19.025 0.974994C19.2417 1.19166 19.35 1.45833 19.35 1.77499V5.77499C19.35 6.09166 19.2417 6.36233 19.025 6.58699C18.8084 6.81233 18.5417 6.92499 18.225 6.92499H12.1C11.7667 6.92499 11.4917 6.81233 11.275 6.58699C11.0584 6.36233 10.95 6.09166 10.95 5.77499ZM0.650024 10.025V1.77499C0.650024 1.45833 0.758358 1.19166 0.975024 0.974994C1.19169 0.758327 1.45836 0.649994 1.77502 0.649994H7.90002C8.23336 0.649994 8.50836 0.758327 8.72503 0.974994C8.94169 1.19166 9.05002 1.45833 9.05002 1.77499V10.025C9.05002 10.3417 8.94169 10.6083 8.72503 10.825C8.50836 11.0417 8.23336 11.15 7.90002 11.15H1.77502C1.45836 11.15 1.19169 11.0417 0.975024 10.825C0.758358 10.6083 0.650024 10.3417 0.650024 10.025ZM10.95 18.2V9.97499C10.95 9.64166 11.0584 9.36666 11.275 9.14999C11.4917 8.93333 11.7667 8.82499 12.1 8.82499H18.225C18.5417 8.82499 18.8084 8.93333 19.025 9.14999C19.2417 9.36666 19.35 9.64166 19.35 9.97499V18.2C19.35 18.5167 19.2417 18.7877 19.025 19.013C18.8084 19.2377 18.5417 19.35 18.225 19.35H12.1C11.7667 19.35 11.4917 19.2377 11.275 19.013C11.0584 18.7877 10.95 18.5167 10.95 18.2ZM0.650024 18.2V14.2C0.650024 13.8833 0.758358 13.6167 0.975024 13.4C1.19169 13.1833 1.45836 13.075 1.77502 13.075H7.90002C8.23336 13.075 8.50836 13.1833 8.72503 13.4C8.94169 13.6167 9.05002 13.8833 9.05002 14.2V18.2C9.05002 18.5167 8.94169 18.7877 8.72503 19.013C8.50836 19.2377 8.23336 19.35 7.90002 19.35H1.77502C1.45836 19.35 1.19169 19.2377 0.975024 19.013C0.758358 18.7877 0.650024 18.5167 0.650024 18.2Z" fill="#1CD2AD"/>
</svg>
