<svg width="18" height="22" viewBox="0 0 18 22" fill="none" xmlns="http://www.w3.org/2000/svg">
<path d="M5.85001 16.85H12.15C12.4 16.85 12.6084 16.7666 12.7752 16.5998C12.9416 16.4334 13.0248 16.2252 13.0248 15.9752C13.0248 15.7252 12.9416 15.5168 12.7752 15.35C12.6084 15.1832 12.4 15.0998 12.15 15.0998H5.85001C5.60001 15.0998 5.39161 15.1832 5.22481 15.35C5.05841 15.5168 4.97521 15.7252 4.97521 15.9752C4.97521 16.2252 5.05841 16.4334 5.22481 16.5998C5.39161 16.7666 5.60001 16.85 5.85001 16.85ZM5.85001 12.6752H12.15C12.4 12.6752 12.6084 12.5918 12.7752 12.425C12.9416 12.2582 13.0248 12.0498 13.0248 11.7998C13.0248 11.5498 12.9416 11.3456 12.7752 11.1872C12.6084 11.0292 12.4 10.9502 12.15 10.9502H5.85001C5.60001 10.9502 5.39161 11.0334 5.22481 11.1998C5.05841 11.3666 4.97521 11.5666 4.97521 11.7998C4.97521 12.0498 5.05841 12.2582 5.22481 12.425C5.39161 12.5918 5.60001 12.6752 5.85001 12.6752ZM2.72521 21.1748C2.20841 21.1748 1.76241 20.9874 1.38721 20.6126C1.01241 20.2374 0.825012 19.7916 0.825012 19.2752V2.7248C0.825012 2.2084 1.01241 1.7626 1.38721 1.3874C1.76241 1.0126 2.20841 0.825195 2.72521 0.825195H10.6248C10.8916 0.825195 11.1416 0.875195 11.3748 0.975195C11.6084 1.0752 11.8084 1.2168 11.9748 1.4L16.6002 6.0248C16.7834 6.1916 16.925 6.3916 17.025 6.6248C17.125 6.8584 17.175 7.1084 17.175 7.3748V19.2752C17.175 19.7916 16.9876 20.2374 16.6128 20.6126C16.2376 20.9874 15.7916 21.1748 15.2748 21.1748H2.72521ZM10.4502 6.5498V2.7248H2.72521V19.2752H15.2748V7.5002H11.4C11.1332 7.5002 10.9082 7.4084 10.725 7.2248C10.5418 7.0416 10.4502 6.8166 10.4502 6.5498Z" fill="#767676"/>
</svg>
