<svg width="17" height="13" viewBox="0 0 17 13" fill="none" xmlns="http://www.w3.org/2000/svg">
<path d="M5.79633 12.9968C5.6374 12.9968 5.4873 12.9703 5.34602 12.9173C5.20475 12.8644 5.07231 12.7761 4.94869 12.6524L0.392632 8.09638C0.163063 7.86681 0.0528705 7.57968 0.0620532 7.23497C0.0705296 6.89097 0.189552 6.60418 0.419121 6.37462C0.64869 6.14505 0.935828 6.03026 1.28053 6.03026C1.62453 6.03026 1.90249 6.14505 2.1144 6.37462L5.79633 10.0565L14.6701 1.18282C14.882 0.953255 15.1645 0.83847 15.5177 0.83847C15.8709 0.83847 16.1623 0.953255 16.3918 1.18282C16.6037 1.41239 16.7097 1.69918 16.7097 2.04318C16.7097 2.38788 16.6037 2.67502 16.3918 2.90459L6.64397 12.6524C6.52036 12.7761 6.38791 12.8644 6.24664 12.9173C6.10537 12.9703 5.95527 12.9968 5.79633 12.9968Z" fill="#767676"/>
</svg>
