<svg width="22" height="18" viewBox="0 0 22 18" fill="none" xmlns="http://www.w3.org/2000/svg">
<path d="M2.74999 17.175C2.23319 17.175 1.78739 16.9834 1.41259 16.6002C1.03739 16.2166 0.849792 15.7748 0.849792 15.2748V2.6502C0.849792 2.1502 1.03739 1.7084 1.41259 1.3248C1.78739 0.9416 2.23319 0.75 2.74999 0.75H8.49979C8.74979 0.75 8.99159 0.8 9.22519 0.9C9.45839 1 9.65839 1.1416 9.82519 1.3248L11.0252 2.5002H19.2998C19.7998 2.5002 20.2416 2.6876 20.6252 3.0624C21.0084 3.4376 21.2 3.8834 21.2 4.3998V15.2748C21.2 15.7748 21.0084 16.2166 20.6252 16.6002C20.2416 16.9834 19.7998 17.175 19.2998 17.175H2.74999ZM2.74999 2.6502V15.2748H19.2998V4.3998H10.2248L8.49979 2.6502H2.74999Z" fill="#767676"/>
</svg>
