<svg width="24" height="17" viewBox="0 0 24 17" fill="none" xmlns="http://www.w3.org/2000/svg">
<path d="M1.75021 16.25C1.48341 16.25 1.26241 16.1584 1.08721 15.9752C0.912412 15.7916 0.825012 15.5666 0.825012 15.3002V13.5752C0.825012 12.9584 0.979212 12.4 1.28761 11.9C1.59601 11.4 2.02521 11.025 2.57521 10.775C3.74161 10.2418 4.83321 9.8544 5.85001 9.6128C6.86681 9.3708 7.90841 9.2498 8.97481 9.2498C10.0584 9.2498 11.1044 9.3708 12.1128 9.6128C13.1208 9.8544 14.2082 10.2418 15.375 10.775C15.925 11.025 16.3584 11.4 16.6752 11.9C16.9916 12.4 17.1498 12.9584 17.1498 13.5752V15.3002C17.1498 15.5666 17.0582 15.7916 16.875 15.9752C16.6918 16.1584 16.4668 16.25 16.2 16.25H1.75021ZM18.3252 16.25C18.4916 16.1832 18.629 16.0624 18.7374 15.8876C18.8458 15.7124 18.9 15.5082 18.9 15.275V13.5248C18.9 12.5584 18.6542 11.7292 18.1626 11.0372C17.671 10.3456 17.0084 9.7582 16.1748 9.275C17.1916 9.4082 18.15 9.5998 19.05 9.8498C19.95 10.0998 20.7084 10.3832 21.3252 10.7C21.9084 11.0332 22.3624 11.4416 22.6872 11.9252C23.0124 12.4084 23.175 12.95 23.175 13.55V15.3002C23.175 15.5666 23.0876 15.7916 22.9128 15.9752C22.7376 16.1584 22.5166 16.25 22.2498 16.25H18.3252ZM8.97481 7.8998C7.85841 7.8998 6.92921 7.529 6.18721 6.7874C5.44561 6.0458 5.07481 5.1084 5.07481 3.9752C5.07481 2.8584 5.44561 1.9292 6.18721 1.1876C6.92921 0.445995 7.85841 0.0751953 8.97481 0.0751953C10.1084 0.0751953 11.046 0.445995 11.7876 1.1876C12.5292 1.9292 12.9 2.8584 12.9 3.9752C12.9 5.1084 12.5292 6.0458 11.7876 6.7874C11.046 7.529 10.1084 7.8998 8.97481 7.8998ZM18.5502 3.9752C18.5502 5.1084 18.1792 6.0458 17.4372 6.7874C16.6956 7.529 15.7666 7.8998 14.6502 7.8998C14.4502 7.8998 14.2334 7.8832 13.9998 7.85C13.7666 7.8168 13.55 7.7668 13.35 7.7C13.7668 7.2332 14.0876 6.6832 14.3124 6.05C14.5376 5.4168 14.6502 4.7252 14.6502 3.9752C14.6502 3.2252 14.5376 2.546 14.3124 1.9376C14.0876 1.3292 13.7668 0.766596 13.35 0.249796C13.55 0.199796 13.7624 0.158195 13.9872 0.124995C14.2124 0.0917954 14.4334 0.0751953 14.6502 0.0751953C15.7666 0.0751953 16.6956 0.445995 17.4372 1.1876C18.1792 1.9292 18.5502 2.8584 18.5502 3.9752ZM2.70001 14.3498H15.2502V13.5998C15.2502 13.3666 15.1834 13.1416 15.0498 12.9248C14.9166 12.7084 14.75 12.5584 14.55 12.4748C13.4668 11.9748 12.5044 11.629 11.6628 11.4374C10.8208 11.2458 9.92481 11.15 8.97481 11.15C8.04161 11.15 7.15001 11.2458 6.30001 11.4374C5.45001 11.629 4.48341 11.9748 3.40021 12.4748C3.20021 12.5584 3.03341 12.7084 2.89981 12.9248C2.76661 13.1416 2.70001 13.3666 2.70001 13.5998V14.3498ZM8.97481 6.0752C9.57481 6.0752 10.0748 5.8752 10.4748 5.4752C10.8748 5.0752 11.0748 4.5752 11.0748 3.9752C11.0748 3.3752 10.8748 2.8752 10.4748 2.4752C10.0748 2.0752 9.57481 1.8752 8.97481 1.8752C8.37481 1.8752 7.87481 2.0752 7.47481 2.4752C7.07481 2.8752 6.87481 3.3752 6.87481 3.9752C6.87481 4.5752 7.07481 5.0752 7.47481 5.4752C7.87481 5.8752 8.37481 6.0752 8.97481 6.0752Z" fill="#767676"/>
</svg>
