<svg width="28" height="35" viewBox="0 0 28 35" fill="none" xmlns="http://www.w3.org/2000/svg">
<path d="M2.00004 29.9583C1.47226 29.9583 1.02115 29.7778 0.646707 29.4167C0.271151 29.0556 0.083374 28.5972 0.083374 28.0417C0.083374 27.5139 0.271151 27.0694 0.646707 26.7083C1.02115 26.3472 1.47226 26.1667 2.00004 26.1667H3.54171V14.875C3.54171 12.4583 4.25726 10.3194 5.68837 8.45833C7.11837 6.59722 8.97226 5.37499 11.25 4.79166V3.66666C11.25 2.91666 11.5212 2.27777 12.0634 1.74999C12.6045 1.22222 13.25 0.958328 14 0.958328C14.75 0.958328 15.3962 1.22222 15.9384 1.74999C16.4795 2.27777 16.75 2.91666 16.75 3.66666V4.79166C19.0556 5.37499 20.9167 6.59722 22.3334 8.45833C23.75 10.3194 24.4584 12.4583 24.4584 14.875V26.1667H26C26.5556 26.1667 27.0139 26.3472 27.375 26.7083C27.7362 27.0694 27.9167 27.5139 27.9167 28.0417C27.9167 28.5972 27.7362 29.0556 27.375 29.4167C27.0139 29.7778 26.5556 29.9583 26 29.9583H2.00004ZM14 35C13.0556 35 12.2434 34.6667 11.5634 34C10.8823 33.3333 10.5417 32.5278 10.5417 31.5833H17.4584C17.4584 32.5278 17.1184 33.3333 16.4384 34C15.7573 34.6667 14.9445 35 14 35ZM7.33337 26.1667H20.6667V14.875C20.6667 13.0417 20.0139 11.4722 18.7084 10.1667C17.4028 8.86111 15.8334 8.20833 14 8.20833C12.1667 8.20833 10.5973 8.86111 9.29171 10.1667C7.98615 11.4722 7.33337 13.0417 7.33337 14.875V26.1667Z" fill="#AAAAAA"/>
</svg>
