<svg width="20" height="21" viewBox="0 0 20 21" fill="none" xmlns="http://www.w3.org/2000/svg">
<path d="M3.72522 20.3002C2.89162 20.3002 2.18742 20.0126 1.61262 19.4374C1.03742 18.8626 0.749817 18.1584 0.749817 17.3248V15.025C0.749817 14.7582 0.841617 14.5332 1.02522 14.35C1.20842 14.1668 1.43342 14.0752 1.70022 14.0752H3.95022V0.650198C3.95022 0.450198 4.02102 0.341799 4.16262 0.324999C4.30422 0.308199 4.45002 0.374799 4.60002 0.524799L5.47482 1.4248L6.67482 0.224799C6.77482 0.124799 6.88742 0.0747986 7.01262 0.0747986C7.13742 0.0747986 7.24982 0.124799 7.34982 0.224799L8.52522 1.4248L9.72522 0.224799C9.80842 0.124799 9.91662 0.0747986 10.0498 0.0747986C10.1834 0.0747986 10.3002 0.124799 10.4002 0.224799L11.6002 1.4248L12.775 0.224799C12.875 0.124799 12.9876 0.0747986 13.1128 0.0747986C13.2376 0.0747986 13.35 0.124799 13.45 0.224799L14.65 1.4248L15.85 0.224799C15.9332 0.124799 16.0416 0.0747986 16.1752 0.0747986C16.3084 0.0747986 16.425 0.124799 16.525 0.224799L17.6998 1.4248L18.5998 0.524799C18.7498 0.374799 18.8956 0.308199 19.0372 0.324999C19.1792 0.341799 19.2502 0.450198 19.2502 0.650198V17.3248C19.2502 18.1584 18.9626 18.8626 18.3874 19.4374C17.8126 20.0126 17.1084 20.3002 16.2748 20.3002H3.72522ZM16.2748 18.4C16.5916 18.4 16.85 18.3 17.05 18.1C17.25 17.9 17.35 17.6416 17.35 17.3248V2.8H5.82522V14.0752H14.2498C14.5166 14.0752 14.7416 14.1668 14.9248 14.35C15.1084 14.5332 15.2002 14.7582 15.2002 15.025V17.3248C15.2002 17.6416 15.3002 17.9 15.5002 18.1C15.7002 18.3 15.9584 18.4 16.2748 18.4ZM7.85022 6.8248C7.63342 6.8248 7.44582 6.7416 7.28742 6.5752C7.12902 6.4084 7.04982 6.2084 7.04982 5.9752C7.04982 5.7416 7.12902 5.5458 7.28742 5.3878C7.44582 5.2294 7.64162 5.1502 7.87482 5.1502H12.1C12.3332 5.1502 12.529 5.2294 12.6874 5.3878C12.8458 5.5458 12.925 5.7416 12.925 5.9752C12.925 6.2252 12.8458 6.4294 12.6874 6.5878C12.529 6.7458 12.3332 6.8248 12.1 6.8248H7.85022ZM7.85022 10.0498C7.63342 10.0498 7.44582 9.9666 7.28742 9.8002C7.12902 9.6334 7.04982 9.4334 7.04982 9.2002C7.04982 8.9666 7.12902 8.7708 7.28742 8.6128C7.44582 8.4544 7.64162 8.3752 7.87482 8.3752H12.1C12.3332 8.3752 12.529 8.4544 12.6874 8.6128C12.8458 8.7708 12.925 8.9748 12.925 9.2248C12.925 9.4584 12.8458 9.6544 12.6874 9.8128C12.529 9.9708 12.3332 10.0498 12.1 10.0498H7.85022ZM15.1498 6.8248C14.9166 6.8248 14.7166 6.7416 14.5498 6.5752C14.3834 6.4084 14.3002 6.2084 14.3002 5.9752C14.3002 5.7584 14.3834 5.5666 14.5498 5.3998C14.7166 5.2334 14.9166 5.1502 15.1498 5.1502C15.3666 5.1502 15.5584 5.2334 15.7252 5.3998C15.8916 5.5666 15.9748 5.7584 15.9748 5.9752C15.9748 6.2084 15.8916 6.4084 15.7252 6.5752C15.5584 6.7416 15.3666 6.8248 15.1498 6.8248ZM15.1498 9.9748C14.9166 9.9748 14.7166 9.8916 14.5498 9.7252C14.3834 9.5584 14.3002 9.3584 14.3002 9.1252C14.3002 8.9084 14.3834 8.7166 14.5498 8.5498C14.7166 8.3834 14.9166 8.3002 15.1498 8.3002C15.3666 8.3002 15.5584 8.3834 15.7252 8.5498C15.8916 8.7166 15.9748 8.9084 15.9748 9.1252C15.9748 9.3584 15.8916 9.5584 15.7252 9.7252C15.5584 9.8916 15.3666 9.9748 15.1498 9.9748ZM3.70002 18.4H13.3V15.9748H2.65002V17.3248C2.65002 17.6416 2.75002 17.9 2.95002 18.1C3.15002 18.3 3.40002 18.4 3.70002 18.4Z" fill="#767676"/>
</svg>
