<svg width="20" height="22" viewBox="0 0 20 22" fill="none" xmlns="http://www.w3.org/2000/svg">
<path d="M11.925 21.2H8.07498C7.79165 21.2 7.54598 21.1043 7.33798 20.913C7.12931 20.721 6.99998 20.4833 6.94998 20.2L6.67498 17.95C6.47498 17.8667 6.29565 17.775 6.13698 17.675C5.97898 17.575 5.81665 17.4667 5.64998 17.35L3.52498 18.25C3.25831 18.35 2.99165 18.3583 2.72498 18.275C2.45831 18.1917 2.24998 18.025 2.09998 17.775L0.199979 14.45C0.0499793 14.2 0.00397934 13.9333 0.0619793 13.65C0.120646 13.3667 0.258313 13.1417 0.474979 12.975L2.29998 11.575V10.425L0.474979 9.02499C0.258313 8.85832 0.120646 8.63332 0.0619793 8.34999C0.00397934 8.06666 0.0499793 7.79999 0.199979 7.54999L2.09998 4.22499C2.23331 3.97499 2.43765 3.81232 2.71298 3.73699C2.98765 3.66232 3.25831 3.67499 3.52498 3.77499L5.67498 4.64999C5.82498 4.53332 5.98331 4.42499 6.14998 4.32499C6.31665 4.22499 6.49165 4.14165 6.67498 4.07499L6.94998 1.79999C6.99998 1.49999 7.12931 1.25832 7.33798 1.07499C7.54598 0.891655 7.79165 0.799988 8.07498 0.799988H11.925C12.2083 0.799988 12.4543 0.891655 12.663 1.07499C12.871 1.25832 13 1.49999 13.05 1.79999L13.325 4.07499C13.525 4.14165 13.7043 4.22499 13.863 4.32499C14.021 4.42499 14.1833 4.53332 14.35 4.64999L16.475 3.77499C16.7416 3.67499 17.0083 3.66232 17.275 3.73699C17.5416 3.81232 17.75 3.97499 17.9 4.22499L19.8 7.54999C19.95 7.79999 20 8.06666 19.95 8.34999C19.9 8.63332 19.7583 8.85832 19.525 9.02499L17.675 10.425C17.6916 10.525 17.7 10.6207 17.7 10.712V11.287C17.7 11.379 17.6833 11.475 17.65 11.575L19.5 12.975C19.7166 13.1417 19.8543 13.3667 19.913 13.65C19.971 13.9333 19.925 14.2 19.775 14.45L17.875 17.75C17.725 18 17.5126 18.1707 17.238 18.262C16.9626 18.354 16.6916 18.35 16.425 18.25L14.325 17.35C14.175 17.4667 14.0166 17.575 13.85 17.675C13.6833 17.775 13.5083 17.8667 13.325 17.95L13.05 20.2C13 20.4833 12.871 20.721 12.663 20.913C12.4543 21.1043 12.2083 21.2 11.925 21.2ZM10.025 14.5C10.9916 14.5 11.8166 14.1583 12.5 13.475C13.1833 12.7917 13.525 11.9667 13.525 11C13.525 10.0333 13.1833 9.20832 12.5 8.52499C11.8166 7.84165 10.9916 7.49999 10.025 7.49999C9.05831 7.49999 8.23331 7.84165 7.54998 8.52499C6.86665 9.20832 6.52498 10.0333 6.52498 11C6.52498 11.9667 6.86665 12.7917 7.54998 13.475C8.23331 14.1583 9.05831 14.5 10.025 14.5ZM10.025 12.5C9.60831 12.5 9.25431 12.354 8.96298 12.062C8.67098 11.7707 8.52498 11.4167 8.52498 11C8.52498 10.5833 8.67098 10.2293 8.96298 9.93799C9.25431 9.64599 9.60831 9.49999 10.025 9.49999C10.4416 9.49999 10.796 9.64599 11.088 9.93799C11.3793 10.2293 11.525 10.5833 11.525 11C11.525 11.4167 11.3793 11.7707 11.088 12.062C10.796 12.354 10.4416 12.5 10.025 12.5ZM9.07498 18.925H10.9L11.25 16.3C11.7833 16.1667 12.275 15.9667 12.725 15.7C13.175 15.4333 13.5833 15.1083 13.95 14.725L16.425 15.75L17.325 14.175L15.175 12.55C15.2583 12.3167 15.321 12.0667 15.363 11.8C15.4043 11.5333 15.425 11.2667 15.425 11C15.425 10.7333 15.4043 10.4667 15.363 10.2C15.321 9.93332 15.2583 9.68332 15.175 9.44999L17.325 7.82499L16.425 6.24999L13.95 7.29999C13.5833 6.89999 13.175 6.56666 12.725 6.29999C12.275 6.03332 11.7833 5.83332 11.25 5.69999L10.925 3.07499H9.07498L8.74998 5.69999C8.21665 5.83332 7.72498 6.03332 7.27498 6.29999C6.82498 6.56666 6.40831 6.89165 6.02498 7.27499L3.57498 6.24999L2.67498 7.82499L4.79998 9.42499C4.71665 9.67499 4.65431 9.92932 4.61298 10.188C4.57098 10.446 4.54998 10.7167 4.54998 11C4.54998 11.2667 4.57098 11.529 4.61298 11.787C4.65431 12.0457 4.71665 12.3083 4.79998 12.575L2.67498 14.175L3.57498 15.75L6.02498 14.725C6.40831 15.1083 6.82498 15.4333 7.27498 15.7C7.72498 15.9667 8.21665 16.1667 8.74998 16.3L9.07498 18.925Z" fill="#767676"/>
</svg>
